<?xml version="1.0" encoding="utf-8"?>
<!-- Generator: Adobe Illustrator 18.0.0, SVG Export Plug-In . SVG Version: 6.00 Build 0)  -->
<!DOCTYPE svg PUBLIC "-//W3C//DTD SVG 1.1//EN" "http://www.w3.org/Graphics/SVG/1.1/DTD/svg11.dtd">
<svg version="1.1" id="Layer_1" xmlns="http://www.w3.org/2000/svg" xmlns:xlink="http://www.w3.org/1999/xlink" x="0px" y="0px"
	 viewBox="0 0 193.5 55.8" enable-background="new 0 0 193.5 55.8" xml:space="preserve">
<g>
	<g>
		<g id="XMLID_5_">
			<g>
				<path fill="#0653A2" d="M189.1,30.2c0.2,8.7-3.8,17.3-11.7,25.6l-4.3-4.1c6.8-7.1,10.2-14.3,10.1-21.4
					c-0.2-7.1-3.7-14-10.8-20.8l4.3-4.1h0C184.9,13.5,188.9,21.6,189.1,30.2z"/>
				<polygon fill="#0653A2" points="176.7,5.5 176.7,5.5 176.7,5.5 				"/>
				<path fill="#0653A2" d="M170.4,11.5c12.3,11.8,12.6,26.5,1,38.6l-4.3-4.1c9.3-9.7,8.9-20.9-1-30.4L170.4,11.5z"/>
				<path fill="#0653A2" d="M164.1,17.5c8.1,7.8,8.4,18.3,0.7,26.3l-4.3-4.1c5.5-5.7,5-12.7-0.7-18.2L164.1,17.5z"/>
				<path fill="#0653A2" d="M157.9,23.4c4.3,4.1,4.1,10.8,0.7,14.4l-7.8-7.6L157.9,23.4z"/>
			</g>
		</g>
	</g>
	<g>
		<path fill-rule="evenodd" clip-rule="evenodd" fill="#00AEEF" d="M139.6,1.7c0,0,0,14.4,0,21.6c0,1.4,0,4.6,0,4.6l15.8-13.7h7.8
			L146,29.9l17.4,16.5l-8.7,0l-15.2-13.1v13.1h-6.2V1.7H139.6z"/>
		<path fill-rule="evenodd" clip-rule="evenodd" fill="#0653A2" d="M5.9,15.9h5.3v3.4c0,0,0.7-0.8,1.1-1.1c2.8-2.3,6-3.3,9.6-2.7
			c0.4,0.1,1.1,0.2,1.1,0.2L22.6,22c0,0-0.5-0.2-0.8-0.3c-5.5-1.4-10.2,1.5-10.6,7.2v17.5H5.9V15.9z"/>
		<path fill-rule="evenodd" clip-rule="evenodd" fill="#00AEEF" d="M126.4,36c1.6,1.2,3.1,2.4,4.6,3.6c-1.8,2.5-3.9,4.4-6.7,5.5
			c-4.1,1.6-8.3,1.8-12.5,0.4c-6.1-2-9.5-7.3-10-13.4c-0.3-4,0.3-7.8,2.6-11.2c3.6-5.1,8.7-7,14.8-6.5c7.1,0.6,11.8,6.1,12.4,13.2
			c0.1,1.3,0.1,2.7,0.2,4.1c0,0.2-0.1,0.7-0.1,0.7l-23.3,0.1c0,0-0.1,0.6,0.1,1.5c1,3.3,3.1,5.7,6.5,6.4c3.8,0.8,7.2-0.1,10-2.9
			c0.2-0.2,0.4-0.5,0.6-0.7C125.9,36.6,126.1,36.3,126.4,36z M125.2,27c-0.2-3.9-3.2-6.7-7.2-6.8c-5.4-0.1-9.1,2.5-9.5,6.8
			C114.1,27,119.6,27,125.2,27z"/>
		<path fill-rule="evenodd" clip-rule="evenodd" fill="#0653A2" d="M55.4,40.3c1.7-1.3,3.2-2.5,4.7-3.6c0.9,0.8,1.6,1.6,2.4,2.3
			c2.6,2.1,5.5,2.3,8.5,1.1c1.7-0.6,2.4-1.8,2.4-3.3c0-1.7-1.1-2.5-2.5-3c-2.1-0.7-4.2-1.1-6.3-1.7c-0.8-0.2-1.7-0.5-2.5-0.8
			c-6.7-2.4-6.4-10.5-2.2-14c4.3-3.5,11.8-3.8,16.3-0.5c1.3,1,2.4,2.2,3.1,3.9c-1.7,1.1-3.3,2.2-4.9,3.3c-0.2-0.3-0.4-0.5-0.6-0.7
			c-2-2.8-5-3.7-8.2-2.5c-0.5,0.2-1.1,0.5-1.5,0.9c-1.4,1.3-1.3,3,0.4,3.7c1.9,0.9,4,1.3,6,2c1.7,0.5,3.4,0.9,5,1.6
			c6.3,2.8,5.8,11.5,1.4,14.8c-2.2,1.6-4.7,2.4-7.4,2.6c-2.1,0.1-4.2-0.1-6.3-0.5C59.7,45.3,57.3,43.3,55.4,40.3z"/>
		<path fill-rule="evenodd" clip-rule="evenodd" fill="#00AEEF" d="M101.9,39.5v5.6c0,0-0.4,0.2-0.6,0.3c-3.2,1.2-6.6,1.5-9.8,0.3
			c-3.2-1.1-4.4-3.9-4.5-7V20.5c0,0-4.7,0-6.3,0c0-1.8,0-3.6,0-5.4c2.1,0,6.3,0,6.3,0V6h6.2v9.2l8.5,0v5.4h-8.5V37
			c0,2.8,1.6,4.1,4.3,3.7C98.9,40.5,101.9,39.5,101.9,39.5z"/>
		<path fill-rule="evenodd" clip-rule="evenodd" fill="#0653A2" d="M49.1,36c1.6,1.2,3.1,2.4,4.6,3.6c-1.8,2.5-3.9,4.4-6.7,5.5
			c-4.1,1.6-8.3,1.8-12.5,0.4c-6.1-2-9.5-7.3-10-13.4c-0.3-4,0.3-7.8,2.6-11.2c3.6-5.1,8.7-7,14.8-6.5c7.1,0.6,11.8,6.1,12.4,13.2
			c0.1,1.3,0.1,2.7,0.2,4.1c0,0.2-0.1,0.7-0.1,0.7l-23.3,0.1c0,0-0.1,0.6,0.1,1.5c1,3.3,3.1,5.7,6.5,6.4c3.8,0.8,7.2-0.1,10-2.9
			c0.2-0.2,0.4-0.5,0.6-0.7C48.6,36.6,48.8,36.3,49.1,36z M47.8,27c-0.2-3.9-3.2-6.7-7.2-6.8c-5.4-0.1-9.1,2.5-9.5,6.8
			C36.7,27,42.3,27,47.8,27z"/>
	</g>
</g>
</svg>
